<?xml version="1.0" encoding="UTF-8"?>
<svg id="_レイヤー_2" data-name="レイヤー 2" xmlns="http://www.w3.org/2000/svg" viewBox="0 0 64 64">
  <defs>
    <style>
      .cls-1 {
        fill: #fff;
      }

      .cls-2 {
        stroke: #000;
      }

      .cls-2, .cls-3 {
        fill: none;
        stroke-miterlimit: 10;
      }

      .cls-3 {
        stroke: #fff;
        stroke-width: 2px;
      }
    </style>
  </defs>
  <g>
    <rect x="1" y="1" width="62" height="62" rx="6.99" ry="6.99"/>
    <path d="m56.01,2c3.3,0,5.99,2.69,5.99,5.99v48.02c0,3.3-2.69,5.99-5.99,5.99H7.99c-3.3,0-5.99-2.69-5.99-5.99V7.99c0-3.3,2.69-5.99,5.99-5.99h48.02M56.01,0H7.99C3.58,0,0,3.58,0,7.99v48.02C0,60.42,3.58,64,7.99,64h48.02c4.41,0,7.99-3.58,7.99-7.99V7.99C64,3.58,60.42,0,56.01,0h0Z"/>
  </g>
  <rect class="cls-3" x="7" y="7" width="50" height="50" rx="4" ry="4"/>
  <polygon class="cls-1" points="11 54 11 48 20 28 20 30 13 48 13 52 51 52 51 48 44 30 44 28 53 48 53 54 11 54"/>
  <polygon class="cls-1" points="15 50 15 48 22 30 42 30 49 48 49 50 15 50"/>
  <line class="cls-2" x1="17" y1="42" x2="47" y2="42"/>
  <line class="cls-2" x1="19.5" y1="35.5" x2="44.5" y2="35.5"/>
  <line class="cls-2" x1="20.5" y1="31.5" x2="43.5" y2="31.5"/>
</svg>