<?xml version="1.0" encoding="UTF-8"?>
<svg xmlns="http://www.w3.org/2000/svg" viewBox="0 0 64 64">
  <defs>
    <style>
      .cls-1, .cls-2 {
        fill: #fff;
      }

      .cls-2 {
        stroke: #fff;
        stroke-miterlimit: 10;
        stroke-width: 2px;
      }
    </style>
  </defs>
  <g id="_レイヤー_1" data-name="レイヤー 1">
    <g>
      <rect x="1" y="1" width="62" height="62" rx="6.99" ry="6.99"/>
      <path d="m56.01,2c3.3,0,5.99,2.69,5.99,5.99v48.02c0,3.3-2.69,5.99-5.99,5.99H7.99c-3.3,0-5.99-2.69-5.99-5.99V7.99c0-3.3,2.69-5.99,5.99-5.99h48.02m0-2H7.99C3.58,0,0,3.58,0,7.99v48.02c0,4.41,3.58,7.99,7.99,7.99h48.02c4.41,0,7.99-3.58,7.99-7.99V7.99c0-4.41-3.58-7.99-7.99-7.99h0Z"/>
    </g>
    <g>
      <circle cx="32" cy="32" r="26"/>
      <path class="cls-1" d="m32,7c13.79,0,25,11.21,25,25s-11.21,25-25,25S7,45.79,7,32,18.21,7,32,7m0-2c-14.91,0-27,12.09-27,27s12.09,27,27,27,27-12.09,27-27S46.91,5,32,5h0Z"/>
    </g>
    <g>
      <circle cx="31.96" cy="32.08" r="26"/>
      <path class="cls-1" d="m31.96,7.08c13.79,0,25,11.21,25,25s-11.21,25-25,25S6.96,45.87,6.96,32.08,18.17,7.08,31.96,7.08m0-2c-14.91,0-27,12.09-27,27s12.09,27,27,27,27-12.09,27-27S46.87,5.08,31.96,5.08h0Z"/>
    </g>
  </g>
  <g id="_レイヤー_2" data-name="レイヤー 2">
    <path class="cls-2" d="m58,32c-4-5-9.75-6-13-6-3,0-8,1-13,6-5.7,5.7-10,6-13,6s-8-1-13-6c0,16,14.03,26,26,26,10,0,26-8,26-26Z"/>
    <path class="cls-2" d="m10,30s4.75-3.9,9-4c4.82-.12,10,3,10,3,0,0-4.7,5.15-10,5-4.8-.14-9-4-9-4Z"/>
  </g>
</svg>